<svg xmlns="http://www.w3.org/2000/svg" xmlns:xlink="http://www.w3.org/1999/xlink" width="604" height="430" viewBox="0 0 604 430">
    <defs>
        <path id="0ovtqlsdoa" d="M25.694.124C29.09 3.842 33.982 11.716 33.925 16l-8.162 5.612-2.174-3.162s-.493 5.351-2.832 7.562c-2.298 2.175-8.235 8.58-16.486 8.58-4.953 0-4.736-1.303-3.512-4.548 1.045-2.771 7.295-14.232 7.907-20.817.22.047.799.147 1.8.147.81 0 1.9-.065 3.299-.279 7.472-.954 10.24-5.434 11.929-8.97z"/>
        <path id="88dme9j7id" d="M5.19.184c-1.4.252-2.488.33-3.298.33C.89.514.312.395.092.34L.092.318c.715.056 1.401.084 2.058.084 1.09 0 2.103-.076 3.04-.218z"/>
        <path id="1oc1uh8lkg" d="M28.478.1c3.57 3.302 7.658 4.346 11.112 4.357h.04c2.906 0 5.36-.728 6.666-1.443.494 2.439.644 6.545.274 10.42-.172 1.806-.458 3.561-.873 5.077-.162.591-.342 1.144-.545 1.651-.26.65-.555 1.22-.887 1.69h-9.902v-3.839s-6.314 3.839-9.534 3.839H1.062c-1.485 0-1.239-2.85 1.609-4.83C5.407 15.12 25.65 5.67 28.478.1z"/>
        <path id="l9lanbjm0j" d="M9.128 7.27L5.842 18.95 9.112 7.32l.016-.051zM1.788.177L4.848.56C2.487 2.027.765 3.95.128 6.086L1.788.177z"/>
        <path id="zy9440fabl" d="M22.072.122c5.016 2.273 19.86 8.022 20.93 11.1.393 1.127.658 2.362.837 3.473.307 1.894.366 3.436.368 3.478H1.682s-.392-1.4-.777-3.478c-.699-3.73-1.381-9.636.248-13.504C9.972-.146 22.073.122 22.073.122z"/>
        <path id="5gnu9lcb0o" d="M23.45 1.89c3.572 1.94 12.797 7.02 13.733 9.428.388 1.002.593 2.426.7 3.742.141 1.79.104 3.388.102 3.475v.004H1.423c-.422-.867-.786-2.08-1.05-3.48C-.516 10.4 1.037 3.175 2.681.466 12.04-.85 23.45 1.89 23.45 1.89z"/>
        <linearGradient id="oiki17qe1b" x1="65.353%" x2="70.748%" y1="72.542%" y2="68.878%">
            <stop offset="0%" stop-color="#363E7C"/>
            <stop offset="100%" stop-color="#21304F"/>
        </linearGradient>
        <linearGradient id="en4ebz9l5e" x1="65.353%" x2="70.748%" y1="81.6%" y2="76.464%">
            <stop offset="0%" stop-color="#2B3264"/>
            <stop offset="100%" stop-color="#1B273F"/>
        </linearGradient>
        <linearGradient id="zqub6eqkwh" x1="58.27%" x2="64.818%" y1="71.218%" y2="70.441%">
            <stop offset="0%" stop-color="#363E7C"/>
            <stop offset="100%" stop-color="#21304F"/>
        </linearGradient>
        <linearGradient id="rdeasedb7m" x1="50%" x2="50%" y1="0%" y2="100%">
            <stop offset="0%" stop-color="#FFF"/>
            <stop offset="100%"/>
        </linearGradient>
    </defs>
    <g fill="none" fill-rule="evenodd">
        <g>
            <g>
                <g>
                    <g>
                        <path fill="#E4EAEB" d="M366.896 34.045v349.931c0 8.856-7.246 16.1-16.102 16.1H175.29c-8.857 0-16.102-7.244-16.102-16.1V34.044c0-8.855 7.245-16.1 16.102-16.1h175.505c8.856 0 16.102 7.245 16.102 16.1" transform="translate(-989 -2834) translate(324 2592) translate(665 242)"/>
                        <path fill="#3E405C" d="M366.896 34.045v5.837H159.187v-5.838c0-8.855 7.245-16.1 16.102-16.1h175.505c8.856 0 16.102 7.245 16.102 16.1" transform="translate(-989 -2834) translate(324 2592) translate(665 242)"/>
                        <path fill="#3E405C" d="M175.935 19.956c-7.768 0-14.09 6.32-14.09 14.088v349.934c0 7.768 6.322 14.09 14.09 14.09H351.44c7.768 0 14.088-6.322 14.088-14.09V34.045c0-7.769-6.32-14.09-14.088-14.09H175.935M351.44 402.093H175.935c-9.988 0-18.114-8.126-18.114-18.114V34.044c0-9.988 8.126-18.113 18.114-18.113H351.44c9.988 0 18.114 8.125 18.114 18.114v349.933c0 9.988-8.126 18.114-18.114 18.114" transform="translate(-989 -2834) translate(324 2592) translate(665 242)"/>
                        <path fill="#F8FBFF" d="M288.138 209.204c0 5.017-4.105 9.122-9.122 9.122h-92.013c-5.017 0-9.122-4.105-9.122-9.122v-94.03c0-5.017 4.105-9.121 9.122-9.121h92.013c5.017 0 9.122 4.104 9.122 9.121v94.03" transform="translate(-989 -2834) translate(324 2592) translate(665 242)"/>
                        <path fill="#FF575A" d="M193.813 195.42L195.807 199.461 200.266 200.108 197.039 203.253 197.801 207.694 193.813 205.598 189.823 207.694 190.586 203.253 187.359 200.108 191.819 199.461 193.813 195.42M211.279 195.42L213.273 199.461 217.732 200.108 214.506 203.253 215.267 207.694 211.279 205.598 207.289 207.694 208.052 203.253 204.825 200.108 209.285 199.461 211.279 195.42M228.745 195.42L230.739 199.461 235.198 200.108 231.973 203.253 232.733 207.694 228.745 205.598 224.757 207.694 225.518 203.253 222.293 200.108 226.751 199.461 228.745 195.42M246.3 195.42l-1.993 4.04-4.46.648 3.227 3.145-.763 4.44 3.99-2.095 3.986 2.096-.76-4.44 3.225-3.146-4.457-.647-1.994-4.041zm0 4.123l.782 1.585.95.139.8.115-.58.565-.687.67.3 1.742-.716-.376-.848-.447-.85.447-.717.376.299-1.742-.688-.67-.578-.565.8-.115.951-.139.423-.86.36-.725z" transform="translate(-989 -2834) translate(324 2592) translate(665 242)"/>
                        <path fill="#F8FBFF" d="M346.274 357.755c0 5.612-4.594 10.204-10.206 10.204H188.087c-5.614 0-10.206-4.592-10.206-10.204v-86.234c0-5.613 4.592-10.205 10.206-10.205h147.981c5.612 0 10.206 4.592 10.206 10.205v86.234M412.12 209.204c0 5.017-4.106 9.122-9.123 9.122h-92.013c-5.017 0-9.122-4.105-9.122-9.122v-94.03c0-5.017 4.105-9.121 9.122-9.121h92.013c5.017 0 9.122 4.104 9.122 9.121v94.03" transform="translate(-989 -2834) translate(324 2592) translate(665 242)"/>
                        <path fill="#FF575A" d="M317.794 195.42L319.788 199.461 324.247 200.108 321.02 203.253 321.78 207.694 317.794 205.598 313.804 207.694 314.567 203.253 311.34 200.108 315.8 199.461 317.794 195.42M335.26 195.42L337.254 199.461 341.713 200.108 338.488 203.253 339.248 207.694 335.26 205.598 331.271 207.694 332.033 203.253 328.806 200.108 333.265 199.461 335.26 195.42M352.726 195.42L354.72 199.461 359.179 200.108 355.954 203.253 356.714 207.694 352.726 205.598 348.738 207.694 349.499 203.253 346.274 200.108 350.731 199.461 352.726 195.42M370.28 195.42l-1.994 4.04-4.459.648 3.228 3.145-.763 4.44 3.988-2.095 3.988 2.096-.76-4.44 3.225-3.146-4.459-.647-1.994-4.041zm0 4.123l.358.726.425.86.948.138.801.115-.578.565-.686.668.16.947.137.797-.715-.376-.85-.447-.848.447-.717.376.299-1.742-.688-.67-.576-.565.799-.115.95-.139.781-1.585z" transform="translate(-989 -2834) translate(324 2592) translate(665 242)"/>
                        <path fill="#FF6E54" d="M177.881 248.765L257.582 248.765 257.582 239.391 177.881 239.391z" transform="translate(-989 -2834) translate(324 2592) translate(665 242)"/>
                        <path fill="#FF575A" d="M188.893 290.823L268.596 290.823 268.596 278.707 188.893 278.707zM188.893 307.995L256.778 307.995 256.778 305.259 188.893 305.259zM188.893 316.006L239.846 316.006 239.846 313.269 188.893 313.269zM188.893 324.016L252.752 324.016 252.752 321.28 188.893 321.28zM188.893 332.027L265.365 332.027 265.365 329.291 188.893 329.291z" transform="translate(-989 -2834) translate(324 2592) translate(665 242)"/>
                        <path fill="#00D3AA" d="M305.057 318.151c-9.762 0-17.705 7.941-17.705 17.705 0 9.762 7.943 17.704 17.705 17.704 9.762 0 17.705-7.942 17.705-17.704 0-9.764-7.943-17.705-17.705-17.705zm0 38.145c-11.27 0-20.442-9.17-20.442-20.44 0-11.272 9.171-20.441 20.442-20.441 11.272 0 20.441 9.169 20.441 20.441 0 11.27-9.169 20.44-20.441 20.44z" transform="translate(-989 -2834) translate(324 2592) translate(665 242)"/>
                        <path fill="#00D3AA" d="M311.055 329.6h22.642V306.96l-22.642.002v22.64zm25.378 2.737H308.32v-28.113l28.114-.002v28.115z" transform="translate(-989 -2834) translate(324 2592) translate(665 242)"/>
                        <path fill="#FF6E54" d="M543.356 130.817h50.913c5.112 0 9.258 4.145 9.258 9.255v50.913c0 5.113-4.146 9.258-9.258 9.258h-50.913c-5.112 0-9.257-4.145-9.257-9.258v-50.913c0-5.11 4.145-9.255 9.257-9.255" transform="translate(-989 -2834) translate(324 2592) translate(665 242)"/>
                        <path fill="#FFF" d="M570.423 181.345c-1.47 0-2.662-1.193-2.662-2.662v-4.453c0-4.176 2.739-7.093 5.386-9.911 2.477-2.638 4.816-5.13 4.816-8.476 0-4.156-3.382-7.536-7.54-7.536-4.16 0-7.542 3.38-7.542 7.536 0 1.47-1.191 2.662-2.661 2.662-1.469 0-2.66-1.192-2.66-2.662 0-7.091 5.77-12.86 12.863-12.86s12.863 5.769 12.863 12.86c0 5.453-3.471 9.149-6.259 12.119-2.114 2.253-3.942 4.2-3.942 6.268v4.453c0 1.469-1.193 2.662-2.662 2.662zm.016 10.2c-1.468 0-2.669-1.19-2.669-2.66 0-1.47 1.183-2.662 2.653-2.662h.016c1.473 0 2.662 1.192 2.662 2.662s-1.19 2.66-2.662 2.66z" transform="translate(-989 -2834) translate(324 2592) translate(665 242)"/>
                        <path fill="#00D3AA" d="M9.21 237.808h50.255c5.045 0 9.137 4.092 9.137 9.136V297.2c0 5.05-4.092 9.136-9.137 9.136H9.209c-5.047 0-9.138-4.086-9.138-9.136v-50.255c0-5.044 4.091-9.136 9.138-9.136" transform="translate(-989 -2834) translate(324 2592) translate(665 242)"/>
                        <path fill="#FFF" d="M30.574 255.057c-6.99 0-12.678 5.686-12.678 12.675 0 6.991 5.687 12.68 12.678 12.68 6.99 0 12.678-5.689 12.678-12.68 0-6.989-5.688-12.675-12.678-12.675zm0 30.608c-9.888 0-17.932-8.043-17.932-17.933 0-9.887 8.044-17.93 17.932-17.93 9.888 0 17.932 8.043 17.932 17.93 0 9.89-8.044 17.933-17.932 17.933z" transform="translate(-989 -2834) translate(324 2592) translate(665 242)"/>
                        <path fill="#FFF" d="M51.817 292.937c-.672 0-1.345-.255-1.858-.77l-10.963-10.96c-1.027-1.027-1.027-2.69 0-3.718 1.023-1.024 2.687-1.024 3.714 0l10.964 10.964c1.026 1.027 1.026 2.69 0 3.714-.512.515-1.185.77-1.857.77" transform="translate(-989 -2834) translate(324 2592) translate(665 242)"/>
                        <path fill="#E4EAEB" d="M483.447 45.183c-2.564-1.395-4.598-3.588-4.52-4.885l-.03-1.195-.031-1.203c-.148-1.283 1.77-3.593 4.256-5.11 2.5-1.526 3.034-5.237 1.184-8.255l-6.517-10.636c-1.85-3.01-5.385-4.213-7.886-2.694-2.494 1.525-5.424 2.22-6.533 1.53-1.111-.676-4.291-4.522-4.366-7.446-.076-2.927-3.026-5.236-6.555-5.145l-12.467.329c-3.528.092-6.352 2.551-6.274 5.478.075 2.925-.812 5.81-1.961 6.43-1.155.62-6.046 1.441-8.614.047-2.578-1.385-6.048.001-7.734 3.101l-5.953 10.965c-1.687 3.113-.965 6.79 1.617 8.17 2.563 1.398 4.595 3.607 4.517 4.891l.03 1.206.032 1.19c.148 1.296-1.768 3.592-4.254 5.119-2.507 1.53-3.034 5.238-1.186 8.247l6.516 10.637c1.848 3.006 5.386 4.221 7.889 2.694 2.49-1.516 5.421-2.209 6.53-1.534 1.11.692 4.29 4.536 4.364 7.46.079 2.925 3.027 5.236 6.555 5.141l12.47-.324c3.526-.093 6.348-2.553 6.272-5.478-.075-2.926.813-5.822 1.96-6.442 1.154-.622 6.048-1.431 8.615-.047 2.58 1.394 6.046-.005 7.735-3.103l5.955-10.964c1.687-3.1.961-6.779-1.616-8.174" transform="translate(-989 -2834) translate(324 2592) translate(665 242)"/>
                        <path fill="#00D3AA" d="M447.69 56.607c-9.208.242-16.872-7.03-17.11-16.238-.241-9.212 7.03-16.873 16.238-17.112 9.209-.242 16.87 7.029 17.11 16.238.243 9.21-7.029 16.871-16.238 17.112" transform="translate(-989 -2834) translate(324 2592) translate(665 242)"/>
                        <path fill="#A5B7E8" d="M414.615 389.198l12.05-70.096c.412-2.397 2.816-4.424 5.248-4.424h49.49c2.432 0 4.837 2.027 5.249 4.424l12.05 70.096h-84.087m-8.87 38.438c1.219.212 2.366-.605 2.574-1.819l5.55-32.277h85.579l5.55 32.277c.185 1.086 1.129 1.853 2.194 1.853.124 0 .252-.012.38-.034 1.213-.208 2.026-1.36 1.818-2.574l-18.347-106.716c-.784-4.555-5.017-8.123-9.64-8.123h-49.49c-4.623 0-8.857 3.568-9.64 8.123l-18.345 106.716c-.208 1.213.606 2.366 1.817 2.574" transform="translate(-989 -2834) translate(324 2592) translate(665 242)"/>
                        <path fill="#CCC" d="M488.464 325.894l-1.864-6.607c-.011-.048-.026-.094-.041-.142.075.174.143.351.192.528l1.759 6.221h-.046m7.493-7.976c-.257-.346-.555-.688-.9-1.024h.19c.27.336.507.678.71 1.024" transform="translate(-989 -2834) translate(324 2592) translate(665 242)"/>
                        <path fill="#8492BA" d="M487.502 324.044l-.85-4.942c-.024-.14-.057-.281-.093-.42-.135-.679-.42-1.275-.777-1.788h4.885c.093.267.174.538.243.814.022.111.042.22.062.332l1.023 5.965-4.493.039" transform="translate(-989 -2834) translate(324 2592) translate(665 242)"/>
                        <path fill="#A5B7E8" d="M503.932 310.639v6.255h-94.548v-6.257c0-3.434 2.912-6.247 6.471-6.247h81.608c3.56 0 6.469 2.813 6.469 6.249" transform="translate(-989 -2834) translate(324 2592) translate(665 242)"/>
                    </g>
                    <g transform="translate(-989 -2834) translate(324 2592) translate(665 242) translate(426.04 395.149)">
                        <mask id="b5hznvivxc" fill="#fff">
                            <use xlink:href="#0ovtqlsdoa"/>
                        </mask>
                        <path fill="url(#oiki17qe1b)" d="M-489.273 93.759L240.45 93.759 240.45 -453.538 -489.273 -453.538z" mask="url(#b5hznvivxc)"/>
                    </g>
                    <g>
                        <path fill="#49437B" d="M40.487 144.2c12.216.861 15.516-5.548 17.497-9.859-9.574-15.24-21.788-59.394-22.328-65.909 5.68-5.898 32.873-34.177 40.334-47.144 1.179-2.036 1.86-3.747 1.903-5.008.31-9.302 0-16.12 0-16.12s-31.94 1.026-33.8 1.597c-1.862.569-5.583 4.91-5.583 4.91-5.825 5.36-45.557 42.369-37.173 64.454 3.15 8.303 24.534 53.342 39.15 73.08" transform="translate(-989 -2834) translate(324 2592) translate(665 242) translate(394.115 260.149)"/>
                        <path fill="#CCC" d="M40.591 144.226l-.104-.026c-1.248-1.625-2.563-3.528-3.92-5.639 1.346 2.043 2.658 3.933 3.92 5.64.035 0 .071.003.106.006-.002.006-.002.011-.002.019" transform="translate(-989 -2834) translate(324 2592) translate(665 242) translate(394.115 260.149)"/>
                    </g>
                    <g transform="translate(-989 -2834) translate(324 2592) translate(665 242) translate(434.615 404.088)">
                        <mask id="5jimqdhr7f" fill="#fff">
                            <use xlink:href="#88dme9j7id"/>
                        </mask>
                        <path fill="url(#en4ebz9l5e)" d="M-497.847 100.427L231.875 100.427 231.875 -547.573 -497.847 -547.573z" mask="url(#5jimqdhr7f)"/>
                    </g>
                    <g>
                        <path fill="#CCC" d="M33.75 73.807c-.41-1.307-.81-2.604-1.197-3.882.25-.58.496-1.155.735-1.72.511 1.628.922 3.093 1.265 4.082-.278.51-.544 1.018-.803 1.52" transform="translate(-989 -2834) translate(324 2592) translate(665 242) translate(403.784 284.412)"/>
                        <path fill="#3A3662" d="M32.982 120.015c-.657 0-1.343-.024-2.058-.071-.035-.004-.071-.006-.106-.007-1.262-1.706-2.574-3.596-3.92-5.64-2.724-4.232-5.615-9.29-8.458-14.563 4.802-9.634 10.098-20.516 14.113-29.81.387 1.28.787 2.576 1.197 3.883-12.004 23.335-3.548 37.296 2.319 46.016l-.048.008c-.936.12-1.948.184-3.039.184M2.326 67.748c-.98-1.976-1.751-3.493-2.259-4.395 3.268-10.885 10.19-28.793 13.738-32.776C18.798 24.98 45.427 4.5 51.276.022c-5.883 5-32.763 28.034-37.384 35.326-1.113 1.755-6.122 15.968-11.566 32.4" transform="translate(-989 -2834) translate(324 2592) translate(665 242) translate(403.784 284.412)"/>
                    </g>
                    <g transform="translate(-989 -2834) translate(324 2592) translate(665 242) translate(362.736 406.642)">
                        <mask id="n772ak93ri" fill="#fff">
                            <use xlink:href="#1oc1uh8lkg"/>
                        </mask>
                        <path fill="url(#zqub6eqkwh)" d="M-425.969 82.266L303.754 82.266 303.754 -465.031 -425.969 -465.031z" mask="url(#n772ak93ri)"/>
                    </g>
                    <g>
                        <path fill="#49437B" d="M181.037 194.902c-11.378 8.994-46.814 29.82-46.814 29.82-.743 12.909-30.483 67.64-32.82 73.84-.56.837-3.68 2.174-7.63 2.165-3.794-.01-8.349-1.27-12.147-5.393.688-8.716 24.878-81.815 27.496-85.945 5.196-8.199 38.52-36.29 38.52-36.29L159.547 155s10.419-5.28 14.763-3.464c1.474.61 3.597 1.213 5.752 1.731 4.19 1.014 8.514 1.733 8.514 1.733 2.791 10.439 3.846 30.904-7.538 39.902" transform="translate(-989 -2834) translate(324 2592) translate(665 242) translate(308.554 110.372)"/>
                        <path fill="#3A3662" d="M93.812 300.727h-.04c10.156-17.019 30.063-73.164 35.713-81.17 10.442-8.335 29.521-19.903 41.722-27.76 10.295-6.63 10.138-19.73 9.148-29.461H188c.694 0 1.398.219 2.029.585.246 2.184.39 4.505.389 6.874-.002 8.877-2.033 18.457-8.341 24.224-.336.304-.68.6-1.04.883-3.762 2.973-10.154 7.24-17.027 11.62-13.91 8.869-29.787 18.2-29.787 18.2-.212 3.694-2.8 10.815-6.44 19.243-4.015 9.293-9.311 20.175-14.113 29.81l-.184.368c-.8 1.6-1.584 3.167-2.346 4.683-.754 1.5-1.484 2.95-2.186 4.342-3.9 7.737-6.874 13.598-7.55 15.394-.559.835-3.66 2.165-7.592 2.165m95.079-144.47c-.296-.027-.593-.042-.89-.042h-8.185c.035-.719.106-1.742.245-2.948 4.19 1.014 8.514 1.733 8.514 1.733.108.405.213.823.316 1.257" transform="translate(-989 -2834) translate(324 2592) translate(665 242) translate(308.554 110.372)"/>
                        <path fill="#FF9D87" d="M53.677 89.359c-1.494-3.851-9.045-15.737-9.417-5.708.124 1.113-9.284-10.399-11.76-7.057-2.475 3.342-4.456 12.626.743 17.58 5.2 4.95 13.865 4.208 16.092 6.808 2.23 2.6 6.066-4.333 5.572-6.809-.497-2.477-1.23-4.814-1.23-4.814" transform="translate(-989 -2834) translate(324 2592) translate(665 242) translate(308.554 110.372)"/>
                        <path fill="#FF7D71" d="M52.539 87c-2.832 2.22-6.114 6.245-5.897 12.528.336.107 1.49.576 1.49.576s4.421-.855 4.918-3.085l.627-7.66L52.54 87" transform="translate(-989 -2834) translate(324 2592) translate(665 242) translate(308.554 110.372)"/>
                        <path fill="#E3AF43" d="M94.48 107.83c7.363-15.87 14.36-27.233 20.08-34.084 1.845-2.21 9.302-7.855 9.302-7.855s6.825 7.855 8.064 12.404c1.24 4.55-2.583 18.086-11.037 30.198-6.108 8.747-16.176 22.612-23.77 22.612-9.904 0-45.885-25.254-48.857-29.215-.824-3.962 2.146-11.72 6.273-12.876 5.777 3.302 33.01 12.875 39.945 18.816" transform="translate(-989 -2834) translate(324 2592) translate(665 242) translate(308.554 110.372)"/>
                        <path fill="#E3AF43" d="M188.575 154.998c-.416-8.684 9.302-79.803 9.302-79.803-4.548-9.718-27.084-17.16-33.493-19.02 0 0-9.581-.467-14.47 0-4.891.465-21.502 7.235-26.052 9.716-5.168 9.922-1.238 22.948-.826 35.768.414 12.817 2.275 44.035 1.034 54.786 14.885 4.714 43.416 4.552 64.505-1.447" transform="translate(-989 -2834) translate(324 2592) translate(665 242) translate(308.554 110.372)"/>
                        <path fill="#C99833" d="M181.046 97.576c-.535 6.458-.679 22.674-1.989 25.513-1.311 2.839-25.478 7.522-31 8.713-3.744.808-5.192-.868-10.83.99l-1.205 8.757-11.545 6.365s-.251 6.205-.407 8.53c5.736 2.947 42.797 6.047 64.505-1.446.2-4.918.803-11.592.803-11.592s1.058-33.635-1.423-36.734c-2.483-3.103-6.91-9.096-6.91-9.096" transform="translate(-989 -2834) translate(324 2592) translate(665 242) translate(308.554 110.372)"/>
                        <path fill="#FFAD98" d="M170.38 47.49c-2.066 3.722-3.155 8.477-2.123 13.853-7.441 8.684-21.085 5.168-23.98 1.447 0-5.375 2.742-13.853 2.742-13.853s6.819-14.284 12.197-14.264c5.378.018 13.363 1.239 13.363 1.239l-2.2 11.579" transform="translate(-989 -2834) translate(324 2592) translate(665 242) translate(308.554 110.372)"/>
                        <path fill="#FF7D71" d="M145.417 54.817c2.74.943 10.077.115 14.42-4.845 0 0-1.653-5.584-6.306-3.308-4.652 2.273-7.585 6.006-7.585 6.006l-.53 2.147" transform="translate(-989 -2834) translate(324 2592) translate(665 242) translate(308.554 110.372)"/>
                        <path fill="#FFAD98" d="M139.575 17.1c-3.72 20.673-4.34 44.45 20.261 32.872 9.51-7.443 15.095-14.266 11.785-22.536-3.307-8.27-10.958-16.127-17.78-14.266-6.822 1.86-14.266 3.93-14.266 3.93" transform="translate(-989 -2834) translate(324 2592) translate(665 242) translate(308.554 110.372)"/>
                        <path fill="#FF7D71" d="M139.221 19.14s4.284-1.628 15.9-2.765c11.613-1.136 11.434 8.27 10.531 13.887-4.99-10.683-17.703-3.55-26.952-7.795l.521-3.326" transform="translate(-989 -2834) translate(324 2592) translate(665 242) translate(308.554 110.372)"/>
                        <path fill="#2C3D4F" d="M179.585 31.517c-1.732 4.73-4.68 10.04-9.206 15.976-5.965-.194-3.816-13.024-5.422-20.205-.39-1.757-1.009-3.172-2.025-3.986-5.164-4.134-20.529 2.66-25.427-2.966.441-18.885 7.92-22.351 16.435-19.132 8.518 3.218 18.42 0 23.868 7.674 3.698 5.215 5.456 12.616 1.777 22.639" transform="translate(-989 -2834) translate(324 2592) translate(665 242) translate(308.554 110.372)"/>
                        <path fill="#FF9D87" d="M147.298 137.326c-13.557-8.75-10.663-2.204-14.389-1.843-3.725.36-13.476.5-13.235 2.987.239 2.486 1.753 10.835 5.867 11.214 4.116.38 15.012.547 16.992.618 1.979.072 5.524-2.03 5.524-2.03l-.76-10.946" transform="translate(-989 -2834) translate(324 2592) translate(665 242) translate(308.554 110.372)"/>
                        <path fill="#FF7D71" d="M144.472 135.582s-2.645 7.498.403 14.211c1.35-.567 3.182-1.521 3.182-1.521l-.76-10.946-2.825-1.744" transform="translate(-989 -2834) translate(324 2592) translate(665 242) translate(308.554 110.372)"/>
                        <path fill="#E3AF43" d="M183.014 129.405c-.762-7.476-3.61-27.642-2.762-33.942 0 0 4.837-29.962 15.051-23.895 1.428 1.852 2.44 3.718 2.44 3.718 4.193 9.875 8.2 36.793 8.524 51.49.23 10.311-2.032 18.65-11.26 20.296-9.227 1.647-41.787 4.54-47.206 3.666-3.066-4.256-3.528-12.004-.888-16.464 12.662-.717 30.169-5.225 36.101-4.87" transform="translate(-989 -2834) translate(324 2592) translate(665 242) translate(308.554 110.372)"/>
                        <path fill="#4C5A69" d="M179.585 31.517c-1.732 4.73-4.68 10.04-9.206 15.976-5.965-.194-3.816-13.024-5.422-20.205 3.957-.049 10.86.467 14.628 4.229" transform="translate(-989 -2834) translate(324 2592) translate(665 242) translate(308.554 110.372)"/>
                        <path fill="#FFAD98" d="M164.384 31.158s4.508-3.722 6.404-1.449c1.897 2.275-.712 12.612-5.216 10.339-1.188-4.136-1.188-8.89-1.188-8.89" transform="translate(-989 -2834) translate(324 2592) translate(665 242) translate(308.554 110.372)"/>
                        <path fill="#C99833" d="M122.434 92.499L123.118 105.497 116.505 114.847 122.434 92.499" transform="translate(-989 -2834) translate(324 2592) translate(665 242) translate(308.554 110.372)"/>
                        <path fill="#5481FF" d="M23.581 102.262l15.14 49.903H109.9l-15.144-49.903c-.536-1.765-2.483-3.21-4.329-3.21H25.964c-1.845 0-2.92 1.445-2.383 3.21" transform="translate(-989 -2834) translate(324 2592) translate(665 242) translate(308.554 110.372)"/>
                        <path fill="#474FBF" d="M87.734 99.052c1.846 0 3.792 1.445 4.33 3.21l13.497 44.472 1.644 5.431h38.361c0-2.417-2.012-4.767-6.377-4.767-3.733 0-30.93-.631-30.93-.631l-13.504-44.505c-.536-1.765-2.483-3.21-4.329-3.21h-2.692" transform="translate(-989 -2834) translate(324 2592) translate(665 242) translate(308.554 110.372)"/>
                        <path fill="#A5B7E8" d="M223.363 318.131c.188 0 .378-.018.57-.053 1.661-.312 2.756-1.912 2.444-3.575l-28.119-149.776c-.895-4.772-5.401-8.512-10.258-8.512l-149.54-.002c-4.856 0-9.362 3.74-10.26 8.513L.086 314.503c-.312 1.663.782 3.263 2.443 3.575 1.66.309 3.261-.782 3.573-2.444l28.115-149.78c.352-1.873 2.335-3.52 4.243-3.52l149.54.002c1.907 0 3.89 1.647 4.242 3.52l28.118 149.778c.276 1.47 1.56 2.497 3.003 2.497" transform="translate(-989 -2834) translate(324 2592) translate(665 242) translate(308.554 110.372)"/>
                    </g>
                    <g transform="translate(-989 -2834) translate(324 2592) translate(665 242) translate(336.649 268.905)">
                        <mask id="87oglze0pk" fill="#fff">
                            <use xlink:href="#l9lanbjm0j"/>
                        </mask>
                        <path fill="#BEC2CC" d="M0.128 18.949L6.133 18.949 6.133 0.177 0.128 0.177z" mask="url(#87oglze0pk)"/>
                    </g>
                    <g>
                        <path fill="#8492BA" d="M247.123 239.145l-6.228-.002 2.415-12.861c.425-2.136 1.575-4.06 3.15-5.526l3.974.746-1.118 5.964-.011.05-2.182 11.63" transform="translate(-989 -2834) translate(324 2592) translate(665 242) translate(93.466 48.71)"/>
                        <path fill="#CCC" d="M415.742 239.143l-2.396-12.753c-.408-2.175-1.565-4.134-3.163-5.623l2.096-.394 3.525 18.77h-.062" transform="translate(-989 -2834) translate(324 2592) translate(665 242) translate(93.466 48.71)"/>
                        <path fill="#8492BA" d="M409.575 239.145l-3.31-17.643 3.918-.735c1.598 1.489 2.755 3.448 3.163 5.623l2.396 12.753-6.167.002" transform="translate(-989 -2834) translate(324 2592) translate(665 242) translate(93.466 48.71)"/>
                        <path fill="#A5B7E8" d="M439.53 220.08v6.253H217.105v-6.254c0-.852.178-1.664.501-2.406.98-2.253 3.291-3.842 5.971-3.842h209.488c2.674 0 4.987 1.589 5.967 3.842.321.742.5 1.554.5 2.406" transform="translate(-989 -2834) translate(324 2592) translate(665 242) translate(93.466 48.71)"/>
                        <path fill="#B8C8F5" d="M439.03 217.673H217.606c.98-2.253 3.291-3.842 5.971-3.842h209.488c2.674 0 4.987 1.589 5.967 3.842" transform="translate(-989 -2834) translate(324 2592) translate(665 242) translate(93.466 48.71)"/>
                        <path fill="#FFF" d="M233.194 35.21c0 5.016-4.104 9.121-9.121 9.121H11.539c-5.017 0-9.122-4.105-9.122-9.122V11.493c0-5.017 4.105-9.121 9.122-9.121h212.534c5.017 0 9.121 4.104 9.121 9.121V35.21" transform="translate(-989 -2834) translate(324 2592) translate(665 242) translate(93.466 48.71)"/>
                        <path fill="#3E405C" d="M11.539 4.652c-3.772 0-6.841 3.069-6.841 6.841V35.21c0 3.773 3.069 6.842 6.841 6.842h212.534c3.772 0 6.84-3.069 6.84-6.842V11.493c0-3.772-3.068-6.841-6.84-6.841H11.539zm212.534 41.96H11.539C5.252 46.611.137 41.496.137 35.208V11.493C.137 5.206 5.252.091 11.539.091h212.534c6.286 0 11.402 5.115 11.402 11.402V35.21c0 6.288-5.116 11.402-11.402 11.402z" transform="translate(-989 -2834) translate(324 2592) translate(665 242) translate(93.466 48.71)"/>
                        <path fill="#FF575A" d="M209.982 14.081c-3.713 0-6.732 3.02-6.732 6.733 0 3.712 3.019 6.732 6.732 6.732 3.712 0 6.731-3.02 6.731-6.732 0-3.713-3.019-6.733-6.731-6.733zm0 17.425c-5.897 0-10.693-4.796-10.693-10.692s4.796-10.693 10.693-10.693c5.894 0 10.692 4.797 10.692 10.693s-4.798 10.692-10.692 10.692z" transform="translate(-989 -2834) translate(324 2592) translate(665 242) translate(93.466 48.71)"/>
                        <path fill="#FF575A" d="M219.75 38.37c-.638 0-1.265-.31-1.647-.881l-5.281-7.92c-.607-.91-.361-2.14.55-2.747.908-.606 2.14-.361 2.745.55l5.281 7.92c.606.91.361 2.14-.549 2.746-.34.225-.72.332-1.098.332" transform="translate(-989 -2834) translate(324 2592) translate(665 242) translate(93.466 48.71)"/>
                    </g>
                    <g transform="translate(-989 -2834) translate(324 2592) translate(665 242) translate(119.554 411.568)">
                        <mask id="3x8g9zcyzn" fill="#fff">
                            <use xlink:href="#zy9440fabl"/>
                        </mask>
                        <path fill="url(#rdeasedb7m)" d="M-182.786 77.34L546.936 77.34 546.936 -469.957 -182.786 -469.957z" mask="url(#3x8g9zcyzn)"/>
                    </g>
                    <path fill="#313131" d="M120.459 426.262c.385 2.078.777 3.48.777 3.48h42.525s-.056-1.559-.368-3.48h-42.934" transform="translate(-989 -2834) translate(324 2592) translate(665 242)"/>
                    <g transform="translate(-989 -2834) translate(324 2592) translate(665 242) translate(59.716 411.203)">
                        <mask id="1wqjb9p6fp" fill="#fff">
                            <use xlink:href="#5gnu9lcb0o"/>
                        </mask>
                        <path fill="url(#rdeasedb7m)" d="M-122.949 77.705L606.774 77.705 606.774 -469.592 -122.949 -469.592z" mask="url(#1wqjb9p6fp)"/>
                    </g>
                    <g>
                        <path fill="#313131" d="M4.78 352.742c.265 1.4.63 2.613 1.052 3.48h36.561s.044-1.639-.101-3.48H4.78" transform="translate(-989 -2834) translate(324 2592) translate(665 242) translate(55.307 73.52)"/>
                        <path fill="#343D58" d="M11.073 141.093c-8.12 31.284 3.861 105.014 5.165 110.664-1.955 9.125-11.354 82.6-10.35 87.013 6.618 6.016 19.872 2.81 21.97.802 6.31-20.658 22.495-105.093 22.06-110.528-.434-5.431-8.273-81.768-11.624-84.129-3.35-2.362-27.221-3.822-27.221-3.822" transform="translate(-989 -2834) translate(324 2592) translate(665 242) translate(55.307 73.52)"/>
                        <path fill="#CCC" d="M32.785 321.783s.297-2.003.786-5.361c.529-2.381 1.069-4.855 1.616-7.4-1.453 7.728-2.402 12.761-2.402 12.761m17.133-92.74c-.115-1.44-.752-7.873-1.687-16.593 1.316 6.887 2.088 13.664 1.687 16.594" transform="translate(-989 -2834) translate(324 2592) translate(665 242) translate(55.307 73.52)"/>
                        <path fill="#242E54" d="M33.571 316.422c2.37-16.253 9.252-64.264 8.828-70.598-.511-7.64-9.614-51.068-9.614-51.068s4.03-1.677 7.683-1.677c.298 0 .594.013.884.037 2.23.184 5.069 9.864 6.879 19.334.935 8.72 1.572 15.153 1.687 16.594-.721 5.272-10.187 55.804-14.731 79.978-.547 2.545-1.087 5.019-1.616 7.4" transform="translate(-989 -2834) translate(324 2592) translate(665 242) translate(55.307 73.52)"/>
                        <path fill="#343D58" d="M22.774 143.005c-1.673 21.013 3.103 33.394 5.014 38.648 1.91 5.253 16.699 50.981 22.348 64.67 0 15.863 10.31 80.813 13.519 93.65 3.609 2.206 14.843 5.415 22.664-1.803.203-3.813-2.72-91.629-2.72-96.41 0-4.78-7.056-86.709-9.247-100.665l-51.578 1.91" transform="translate(-989 -2834) translate(324 2592) translate(665 242) translate(55.307 73.52)"/>
                        <path fill="#FF9D87" d="M138.424 29.815c5.396-10.176 2.36-25.537-3.436-28.028-5.795-2.492-2.207 5.673-4.829 8.857-2.621 3.182-6.487-.554-6.487 4.29 0 4.843 3.311 10.656 3.174 12.594-.138 1.937 11.578 2.287 11.578 2.287" transform="translate(-989 -2834) translate(324 2592) translate(665 242) translate(55.307 73.52)"/>
                        <path fill="#2E5998" d="M.83 48.478v.005c.797 13.53 5.846 28.37 8.653 35.587-1.434 11.94.887 40.044-3.128 62.126 1.878 1.779 4.231 3.298 6.936 4.59 19.446 9.264 56.949 6.416 65.17-1.076-.753-2.438-1.627-9.025-2.013-12.67-1.505-14.102-.765-33.092.372-36.253 1.432-3.985 37.25-8.283 49.826-23.563 1.27-1.544 2.722-4.601 4.198-8.463 4.382-11.443 9.026-29.97 10.06-37.232-2.464-4.629-11.719-7.866-16.498-6.395-.922 1.476-8.268 32.51-10.976 35.817-2.701 3.314-35.34 3.854-37.564 3.22-2.231-.635-14.013-7.8-18.788-9.231l-21.49-2.232c-2.227-.476-10.507-1.751-13.21-8.275-3.865-9.313 3.022-21.333 7-24.996 3.983-3.659 20.55-20.354 3.835-14.944C16.498 9.909 2.157 25.808.886 40.933c-.204 2.425-.21 4.961-.056 7.545" transform="translate(-989 -2834) translate(324 2592) translate(665 242) translate(55.307 73.52)"/>
                        <path fill="#FF9D87" d="M56.623 48.778c-.26 2.659.994 6.08.994 6.08-7.876 4.896-18.515 1.915-21.282 0-1.491-5.32-1.494-4.89-2.344-6.805-1.487-12.769 13.622-7.876 15.965-6.811 2.34 1.064 6.667 7.536 6.667 7.536" transform="translate(-989 -2834) translate(324 2592) translate(665 242) translate(55.307 73.52)"/>
                        <path fill="#FF7D71" d="M45.753 48.013c2.928 1.473 9.154 4.071 11.115 4.084-.228-1.532-.245-3.32-.245-3.32s-4.24-3.948-6.27-3.828c-2.03.119-4.6 3.064-4.6 3.064" transform="translate(-989 -2834) translate(324 2592) translate(665 242) translate(55.307 73.52)"/>
                        <path fill="#FFAD98" d="M60.81 17.832c2.766 8.087 6.171 31.923-6.386 31.071-12.556-.85-14.896-2.127-17.663-5.107-2.768-2.979-5.322-21.495 2.127-23.623 7.449-2.129 21.922-2.34 21.922-2.34" transform="translate(-989 -2834) translate(324 2592) translate(665 242) translate(55.307 73.52)"/>
                        <path fill="#2C3D4F" d="M34.311 48.926c.811 1.275 5.854.59 6.706 0 .85-.59 4.372-11.016 5.533-17.048 2.156-11.21 15.181-6.946 16.87-14.046 1.518-6.388 1.584-16.778-1.404-17.594-3.122-.85-6.385 1.987-8.656 1.703-2.27-.284-14.046-1.703-20.147 2.554-6.101 4.257-11.918 14.188-9.647 24.687 2.269 10.5 8.862 16.786 10.745 19.744" transform="translate(-989 -2834) translate(324 2592) translate(665 242) translate(55.307 73.52)"/>
                        <path fill="#FFAD98" d="M47.295 34.964c-4.47-4.47-8.513-1.172-6.81 3.511 1.703 4.683 5.107 5.002 6.065 3.087.957-1.916.745-6.598.745-6.598" transform="translate(-989 -2834) translate(324 2592) translate(665 242) translate(55.307 73.52)"/>
                        <path fill="#244F8E" d="M76.448 137.04s-4.007-19.143-3.77-31.32c.24-12.18 10.987-10.985 25.552-15.522 14.566-4.537 24.116-11.938 32.614-21.437-1.476 3.862-2.928 6.92-4.198 8.463-1.171 1.423-2.545 2.75-4.072 3.991-4.422 3.594-10.143 6.46-16.036 8.81-1.335.534-2.683 1.042-4.024 1.523-12.632 4.545-24.87 6.944-25.694 9.239-.68 1.891-1.219 9.457-1.219 18.25 0 5.895.243 12.342.847 18.003" transform="translate(-989 -2834) translate(324 2592) translate(665 242) translate(55.307 73.52)"/>
                        <path fill="#E6E6E6" d="M6.366 146.136c10.998-20.982 4.89-50.062 9-62.018-4.11 11.953 2.559 39.97-9 62.018" transform="translate(-989 -2834) translate(324 2592) translate(665 242) translate(55.307 73.52)"/>
                        <path fill="#244F8E" d="M16.082 151.984c-2.568-1.222-7.916-4.082-9.714-5.775l-.013-.013.011-.06c3.995-22.047 1.69-50.065 3.11-62.018l.007-.048C6.676 76.853 1.627 62.012.83 48.483c2.841 9.961 7.526 25.712 11.676 33.358 4.064 7.493 1.419 46.843 3.576 70.143" transform="translate(-989 -2834) translate(324 2592) translate(665 242) translate(55.307 73.52)"/>
                        <path fill="#444" d="M102.256 345.418c-2.991-.115-8.085 1.379-8.882 1.587-3.662-1.226-10.08-3.501-10.665-4.762-.586-1.262 4.442-3.701 5.268-3.346 2.345 1.006 14.28 6.52 14.28 6.52M38.207 345.771c-1.823.008-2.971.01-5.422-1.105-2.45-1.115-7.622-3.747-7.622-3.747l2.695-1.347 10.349 6.2" transform="translate(-989 -2834) translate(324 2592) translate(665 242) translate(55.307 73.52)"/>
                    </g>
                </g>
            </g>
        </g>
    </g>
</svg>
